<svg width="110" height="31" viewBox="0 0 110 31" fill="none" xmlns="http://www.w3.org/2000/svg">
<g clip-path="url(#clip0_2262_375)">
<path d="M27.8356 17.919V24.2468H22.5645V3.25903H27.8356V13.9024H30.1956L33.5556 8.27904H39.0778L34.56 15.9601L39.0811 24.2468H33.5556L30.0922 17.9213L27.8356 17.919Z" fill="#D2691E"/>
<path d="M55.2981 19.7256L55.247 12.8478V12.0445C55.047 9.6345 52.8881 7.87783 50.4281 8.07894H43.5559C43.2751 8.05116 42.9923 8.05116 42.7115 8.07894C42.1399 8.13338 41.5847 8.29997 41.0776 8.56918C40.5704 8.8384 40.1214 9.20495 39.7561 9.64788C39.3907 10.0908 39.1163 10.6014 38.9485 11.1505C38.7807 11.6996 38.7228 12.2764 38.7781 12.8478V20.5289C38.9792 22.9389 41.1381 24.6956 43.5481 24.4956H51.3259C53.7415 24.2945 55.4981 22.1356 55.2981 19.7256ZM50.0759 19.4745C50.0676 19.6177 50.0281 19.7574 49.9603 19.8839C49.8924 20.0103 49.7978 20.1204 49.683 20.2065C49.5682 20.2926 49.4361 20.3526 49.2957 20.3824C49.1554 20.4122 49.0102 20.411 48.8703 20.3789H44.9559C44.3537 20.3278 44.0015 19.8234 44.0526 19.2234V13.0012C44.0799 12.7218 44.2166 12.4647 44.4329 12.2858C44.6492 12.107 44.9275 12.021 45.207 12.0467H49.1226C49.6781 12.0967 50.077 12.6489 50.0259 13.2523H50.077L50.0759 19.4745Z" fill="#D2691E"/>
<path d="M65.6395 12.3457C64.4094 12.3417 63.1874 12.5453 62.025 12.9479V24.1435H56.7539V8.27901H61.3728L61.6739 9.78568C62.6272 9.23013 63.5817 8.73124 64.5861 8.48013C65.4049 8.18069 66.2699 8.02762 67.1417 8.0279H68.4472C69.0049 7.98887 69.5648 8.06077 70.0946 8.23946C70.6243 8.41814 71.1134 8.70007 71.5335 9.06893C71.9536 9.43779 72.2964 9.88627 72.5421 10.3884C72.7878 10.8906 72.9316 11.4365 72.965 11.9946V24.2468H67.7983V13.4023C67.7775 13.1156 67.6517 12.8466 67.445 12.6468C67.2408 12.4551 66.9718 12.3475 66.6917 12.3457H65.6395Z" fill="#D2691E"/>
<path d="M89.9371 25.0979V8.27905H78.0393C76.8799 8.40596 75.816 8.9811 75.0749 9.88168C74.3338 10.7823 73.9741 11.9369 74.0726 13.0991V19.6257C74.1483 20.75 74.6663 21.7985 75.5132 22.5417C76.3601 23.2849 77.467 23.6623 78.5915 23.5913H79.646C81.4026 23.5913 83.1093 23.3402 84.766 22.9891L84.666 24.4957C84.6639 24.7754 84.5563 25.044 84.3649 25.2479C84.1561 25.4324 83.8899 25.5388 83.6115 25.549C81.6538 25.549 78.7415 25.4491 74.926 25.1479V29.0135C78.4404 29.3646 81.9049 29.6157 85.4193 29.6157H85.9749C88.3326 29.4157 90.0882 27.4068 89.9371 25.0979ZM84.766 19.2746C83.5719 19.4777 82.3628 19.5799 81.1515 19.5802V19.529H80.3982C80.263 19.5268 80.1296 19.4976 80.0058 19.4432C79.882 19.3888 79.7703 19.3102 79.6772 19.2122C79.5841 19.1141 79.5115 18.9985 79.4636 18.872C79.4157 18.7456 79.3935 18.6109 79.3982 18.4757V13.2468C79.4482 12.6435 80.0004 12.2924 80.6026 12.3424H84.7693L84.766 19.2746Z" fill="#D2691E"/>
<path d="M102.488 8.02442C99.1746 8.07554 95.9113 8.22553 92.648 8.62776L92.4435 12.1955L96.2091 11.8944L100.527 11.7433C100.666 11.7394 100.805 11.7641 100.935 11.8159C101.064 11.8677 101.182 11.9455 101.28 12.0444C101.48 12.2955 101.631 12.5466 101.631 12.7978V14.0022H94.9535C92.6446 14.1533 90.8424 16.2111 91.038 18.5211V20.5289C91.0768 21.0829 91.2247 21.6239 91.473 22.1208C91.7212 22.6176 92.0651 23.0606 92.4849 23.4244C92.9047 23.7881 93.3921 24.0654 93.9193 24.2405C94.4464 24.4155 95.0029 24.4848 95.5569 24.4444H96.6102C97.4675 24.4456 98.318 24.2928 99.1213 23.9933C100.175 23.7422 101.129 23.24 102.032 22.6378L102.385 24.1433H107.002V11.9444C106.856 9.63442 104.797 7.87776 102.488 8.02442ZM101.785 19.7222C100.613 20.0818 99.3956 20.2689 98.1702 20.2778V20.3789H97.4169C97.2784 20.3789 97.1414 20.3516 97.0135 20.2986C96.8856 20.2456 96.7695 20.1679 96.6717 20.07C96.5738 19.972 96.4963 19.8558 96.4434 19.7279C96.3905 19.5999 96.3634 19.4628 96.3635 19.3244V19.0244C96.3597 18.885 96.3844 18.7462 96.4362 18.6166C96.4879 18.4871 96.5657 18.3695 96.6646 18.2711C96.7561 18.1604 96.871 18.0714 97.0012 18.0107C97.1313 17.9499 97.2733 17.919 97.4169 17.92H101.785V19.7222Z" fill="#D2691E"/>
<path d="M91.3425 28.26H89.3848V30.3189H91.3425V28.26Z" fill="#D2691E"/>
<path d="M95.059 30.4189C94.6858 30.4183 94.3144 30.3679 93.9545 30.2689L93.1012 29.8167C92.89 29.6168 92.7195 29.378 92.599 29.1133C92.3753 28.6393 92.3086 28.1064 92.4085 27.5919C92.5084 27.0773 92.7697 26.6081 93.1545 26.2522L93.9579 25.8511C94.2843 25.7679 94.6214 25.7338 94.9579 25.75L95.7612 25.8511L96.4645 26.1011V27.3067H96.2134L96.0123 27.1056C95.8214 26.9557 95.598 26.8526 95.3601 26.8045L94.9579 26.7545C94.6067 26.7545 94.3056 26.8545 94.1045 27.1056C93.865 27.3824 93.7395 27.7398 93.7534 28.1056C93.7534 28.4067 93.8534 28.8078 94.1045 29.0589C94.22 29.1628 94.3547 29.2428 94.5012 29.2945C94.6476 29.3462 94.8028 29.3684 94.9579 29.36L95.4101 29.31L95.8123 29.16L96.0123 29.0089L96.2134 28.8589H96.4645V30.0633L95.7612 30.3645L95.059 30.4189Z" fill="#D2691E"/>
<path d="M101.889 28.11C101.889 27.4567 101.688 26.8045 101.235 26.3523C100.733 25.9511 100.131 25.65 99.4787 25.75C98.8234 25.7426 98.1848 25.9568 97.6665 26.3578C97.2654 26.81 96.9642 27.4623 97.0642 28.1156C97.0581 28.7359 97.2714 29.3384 97.6665 29.8167C98.1647 30.2381 98.7962 30.4693 99.4487 30.4693C100.101 30.4693 100.733 30.2381 101.231 29.8167C101.685 29.3145 101.936 28.7623 101.889 28.11ZM100.333 28.7623L100.132 29.1645L99.8309 29.4156C99.7317 29.494 99.6055 29.5299 99.4798 29.5156C99.3287 29.5156 99.1287 29.5156 99.0276 29.4156C98.8776 29.3645 98.7765 29.3145 98.7265 29.2145L98.4754 28.8123L98.4254 28.16C98.388 27.9249 98.4051 27.6842 98.4754 27.4567L98.7265 27.0056L99.0276 26.8045L99.4298 26.7545L99.7776 26.8023C99.8483 26.8035 99.9176 26.8226 99.9789 26.8577C100.04 26.8929 100.092 26.943 100.129 27.0034L100.33 27.4545L100.38 28.1078L100.333 28.7623Z" fill="#D2691E"/>
<path d="M107.058 27.1056V30.2689H105.601V27.5078L105.501 27.1056L105.3 26.9045L104.849 26.8545L104.396 26.9556L104.045 27.1056V30.2689H102.639V25.8511H104.095V26.3023L104.798 25.9011C105.035 25.7979 105.292 25.7464 105.551 25.75C105.822 25.7457 106.09 25.819 106.321 25.9613C106.552 26.1036 106.738 26.309 106.856 26.5534C107.089 26.3096 107.361 26.1061 107.66 25.9511C107.912 25.8317 108.185 25.7634 108.463 25.75C108.864 25.65 109.266 25.8511 109.518 26.1523C109.819 26.5534 109.969 26.9556 109.919 27.4067V30.3189H108.513V27.5578L108.413 27.1556C108.39 27.1049 108.355 27.0605 108.311 27.0257C108.268 26.991 108.217 26.967 108.162 26.9556L107.76 26.9045L107.409 26.9556L107.058 27.1056Z" fill="#D2691E"/>
<path d="M20.405 4.31349C19.3165 3.22047 18.0153 2.36245 16.582 1.79253C15.1486 1.22261 13.6135 0.952928 12.0716 1.00016C10.5682 0.973223 9.07422 1.24282 7.67503 1.79355C6.27585 2.34428 4.99891 3.16534 3.91719 4.20981C2.83547 5.25427 1.97019 6.50167 1.37078 7.8807C0.771381 9.25974 0.449613 10.7434 0.423868 12.2468C0.423868 12.3813 0.423868 12.5168 0.423868 12.6513C0.221646 18.9724 5.24387 24.2468 11.5694 24.3946H12.0716C18.3972 24.5457 23.6661 19.5246 23.7694 13.199V12.5968C23.8139 11.0583 23.5378 9.5273 22.9585 8.10125C22.3793 6.6752 21.5097 5.38528 20.405 4.31349Z" fill="#F9A024"/>
<path d="M12.0721 24.6455C8.95981 24.6999 5.95212 23.522 3.7044 21.3686C1.45668 19.2152 0.151105 16.2607 0.0721328 13.1489V12.6467C0.0174829 9.53424 1.19525 6.52639 3.34875 4.27861C5.50224 2.03083 8.45691 0.725337 11.5688 0.646653H12.071C13.6105 0.609886 15.1421 0.876769 16.5784 1.43206C18.0147 1.98735 19.3275 2.82017 20.4419 3.88294C21.5562 4.94571 22.4503 6.21761 23.073 7.62599C23.6957 9.03437 24.0348 10.5516 24.071 12.0911V12.6467C24.1122 14.1872 23.8484 15.7208 23.2947 17.159C22.741 18.5973 21.9084 19.9118 20.8448 21.0271C19.7812 22.1423 18.5075 23.0363 17.0971 23.6575C15.6867 24.2787 14.1674 24.6148 12.6266 24.6466L12.0721 24.6455ZM12.0721 1.2511C9.12449 1.18331 6.27011 2.28637 4.13405 4.31872C1.99799 6.35106 0.75435 9.14707 0.675466 12.0944V12.65C0.575466 18.8255 5.39436 23.9466 11.6199 24.0466H12.0721C13.535 24.0928 14.9924 23.8479 16.3597 23.3261C17.7271 22.8043 18.9772 22.0161 20.0374 21.0071C21.0976 19.9982 21.9468 18.7887 22.5357 17.4489C23.1245 16.109 23.4413 14.6655 23.4677 13.2022V12.6467C23.6188 6.52221 18.6988 1.4011 12.5788 1.3011L12.0721 1.2511Z" fill="#D2691E"/>
<path d="M6.04808 8.68126C6.45966 8.3091 6.99896 8.1101 7.55363 8.12571C8.17409 8.11571 8.78981 8.23529 9.36141 8.47682C9.98234 8.72504 10.5719 9.04538 11.1181 9.43126L11.3692 9.23015C11.0181 8.52682 10.4659 7.97459 9.81363 7.52348C9.10897 7.12547 8.31292 6.91756 7.50363 6.92015C7.07416 6.93109 6.64979 7.01604 6.24919 7.17126C5.8428 7.33263 5.49436 7.61254 5.24919 7.97459C4.99808 8.2757 4.84697 8.67793 4.69363 9.02904C4.58559 9.4037 4.55162 9.79582 4.59363 10.1835H4.94474C5.20776 9.61364 5.58303 9.10271 6.04808 8.68126ZM13.6292 7.58015C14.1303 7.22904 14.7336 7.02459 15.3359 6.82682C15.8381 6.67682 16.4403 6.77682 16.9425 7.07793C17.4795 7.41281 17.955 7.83751 18.3481 8.33348L18.6492 8.23237C18.5992 7.88126 18.4981 7.42904 18.247 7.12793C18.0651 6.74671 17.7885 6.41849 17.4436 6.17459C17.1425 5.87348 16.6914 5.72237 16.2892 5.61904C15.8599 5.51794 15.4129 5.51794 14.9836 5.61904C14.2197 5.80471 13.5193 6.19096 12.9546 6.73788C12.3899 7.28481 11.9814 7.97258 11.7714 8.73015L12.0725 8.88126L13.5781 7.52571M19.0003 15.459C18.7645 16.0491 18.4259 16.5927 18.0003 17.0646C17.8003 17.2657 17.5992 17.5168 17.2981 17.7179L16.5447 18.2735C15.4345 18.8668 14.2275 19.2577 12.9803 19.4279C11.7292 19.6202 10.4538 19.5863 9.21474 19.3279C8.60653 19.1768 8.01726 18.9576 7.45808 18.6746C6.85586 18.4235 6.35363 18.0224 5.80141 17.6201L5.6503 17.7713C6.45434 18.9331 7.61883 19.7977 8.96363 20.2313C10.3145 20.7232 11.7723 20.8444 13.1859 20.5824C14.6 20.3971 15.9457 19.8625 17.1014 19.0268C18.2536 18.1465 19.0122 16.8474 19.2125 15.4113H19.0003V15.459ZM11.8714 11.6913L12.3236 15.8579L12.5747 15.8079L12.0725 11.6913H11.8714Z" fill="#D2691E"/>
</g>
<defs>
<clipPath id="clip0_2262_375">
<rect width="110" height="30" fill="white" transform="translate(0 0.580078)"/>
</clipPath>
</defs>
</svg>
