<svg width="100" height="32" viewBox="0 0 100 32" fill="none" xmlns="http://www.w3.org/2000/svg">
<path fill-rule="evenodd" clip-rule="evenodd" d="M84.3002 30.3741C84.4138 30.3741 84.509 30.4068 84.5909 30.4774C84.6283 30.5079 84.6585 30.5461 84.6794 30.5892C84.7002 30.6323 84.7111 30.6793 84.7115 30.727C84.7115 30.8247 84.667 30.906 84.5909 30.9766C84.511 31.046 84.407 31.0829 84.3002 31.0799C84.1932 31.0829 84.0891 31.046 84.0089 30.9766C83.971 30.9465 83.9405 30.9084 83.9198 30.8652C83.899 30.822 83.8885 30.7747 83.8889 30.727C83.8889 30.6293 83.927 30.5424 84.0089 30.4774C84.0891 30.408 84.1932 30.3711 84.3002 30.3741ZM89.2025 28.5389L88.8356 28.7343C88.5126 28.3707 88.0765 28.1917 87.5199 28.1917C87.0769 28.1917 86.7037 28.3108 86.4125 28.5553C86.1217 28.7992 85.97 29.0929 85.97 29.4401C85.97 29.6683 86.0393 29.88 86.1725 30.081C86.3111 30.2834 86.5036 30.4449 86.7291 30.548C86.9771 30.6592 87.2472 30.7148 87.5199 30.7106C88.0575 30.7106 88.4936 30.5316 88.8356 30.168L89.2025 30.3741C89.0317 30.6022 88.7976 30.7705 88.5063 30.8953C88.2092 31.0201 87.8741 31.0799 87.5009 31.0799C86.9252 31.0799 86.4505 30.9274 86.071 30.6129C85.6915 30.2978 85.5017 29.9235 85.5017 29.4723C85.5017 29.1742 85.5905 28.8918 85.7676 28.6366C85.9475 28.3729 86.1995 28.1641 86.4949 28.0341C86.8047 27.8873 87.1531 27.8167 87.539 27.8167C87.7789 27.8167 88.0131 27.8438 88.2346 27.9093C88.4373 27.958 88.6299 28.0405 88.8039 28.1533C88.9617 28.2545 89.0972 28.3857 89.2025 28.5389ZM91.8212 27.8167C92.3778 27.8167 92.8456 27.985 93.2124 28.3328C93.5481 28.653 93.7125 29.0217 93.7125 29.4565C93.7125 29.8913 93.5418 30.2707 93.1876 30.5971C92.8329 30.9167 92.3778 31.0799 91.8212 31.0799C91.2645 31.0799 90.8089 30.9173 90.4547 30.5966C90.1006 30.2707 89.9235 29.8907 89.9235 29.4559C89.9235 29.0274 90.0879 28.653 90.423 28.3379C90.7898 27.9907 91.2582 27.8167 91.8212 27.8167ZM91.8212 28.2075C91.4289 28.2075 91.1002 28.3272 90.8216 28.5768C90.5372 28.8213 90.3976 29.12 90.3976 29.4672C90.3976 29.6897 90.4674 29.8964 90.5937 30.0918C90.7182 30.286 90.8958 30.4421 91.1065 30.5423C91.3292 30.648 91.5737 30.7019 91.8212 30.6999C92.0802 30.6999 92.3143 30.6457 92.5295 30.5423C92.7419 30.4425 92.9216 30.2864 93.048 30.0918C93.172 29.9061 93.238 29.6891 93.2378 29.4672C93.2378 29.12 93.0988 28.8213 92.8144 28.5768C92.5358 28.3272 92.2071 28.2075 91.8212 28.2075ZM94.5725 27.893H95.0409V28.4305C95.2053 28.2295 95.3697 28.0827 95.5404 27.9957C95.7707 27.8778 96.0269 27.8164 96.2868 27.8167C96.4639 27.8167 96.6283 27.8438 96.7863 27.9037C96.9302 27.9541 97.0617 28.0336 97.1722 28.1369C97.288 28.2588 97.3764 28.403 97.4318 28.5604C97.5752 28.331 97.7754 28.1407 98.0138 28.007C98.2432 27.8799 98.5028 27.8142 98.7665 27.8167C99.0197 27.8167 99.2406 27.8709 99.4304 27.9799C99.6182 28.0827 99.7686 28.2402 99.8607 28.4305C99.9559 28.6259 99.9997 28.919 99.9997 29.3097V31.0037H99.5256V29.304C99.5256 28.9732 99.4938 28.745 99.4367 28.6208C99.3818 28.4895 99.281 28.3814 99.1524 28.3159C99.0197 28.2402 98.8611 28.2024 98.6713 28.2024C98.4504 28.2024 98.2416 28.2566 98.0582 28.3757C97.875 28.4811 97.7309 28.6409 97.6469 28.832C97.5581 29.0223 97.5142 29.3424 97.5142 29.788V31.0037H97.0522V29.413C97.0522 29.0387 97.0205 28.7834 96.9703 28.6474C96.9133 28.5118 96.8134 28.3976 96.6854 28.3215C96.5375 28.2383 96.369 28.1971 96.1986 28.2024C95.9834 28.2024 95.7809 28.2566 95.5912 28.3707C95.4086 28.476 95.2629 28.6331 95.1736 28.8213C95.0853 29.0059 95.0409 29.299 95.0409 29.6846V31.0037H94.5725V27.8924V27.893ZM68.8453 9.75722C72.3338 9.75722 75.2582 12.1039 76.0276 15.2491C76.0824 15.398 76.1107 15.555 76.1113 15.7133C76.1113 16.4626 75.4762 17.0752 74.7004 17.0752C73.9177 17.0752 73.3853 16.4563 73.2832 15.7133C73.0138 13.6579 70.5636 12.4196 68.8453 12.4196C66.2865 12.4196 64.2216 14.4191 64.2216 16.8832C64.2216 19.348 66.2865 21.3474 68.8453 21.3474C73.2446 21.3474 72.5518 17.4038 74.4951 17.4038C75.2772 17.4038 75.9123 18.0165 75.9123 18.7658C75.8941 18.988 75.8378 19.2057 75.7456 19.4095C74.6871 22.0967 71.994 24.0098 68.8453 24.0098C64.7667 24.0098 61.4639 20.8212 61.4639 16.8838C61.4639 13.5834 61.1109 6.8656 61.1109 3.49175C61.1109 3.13884 61.4062 2.85369 61.765 2.85369H62.0407C62.4 2.85369 62.4 3.13884 62.426 3.49175L62.9711 12.5681C63.0487 12.4684 63.1299 12.3714 63.2145 12.2773L62.8361 1.95588C62.8234 1.58433 63.1505 1.28111 63.5352 1.28111C63.9136 1.28111 64.2152 1.58433 64.2279 1.95588L64.6127 11.0452C64.6703 11.0079 64.7344 10.9645 64.7984 10.921V0.754847C64.7984 0.3833 65.1127 0.0800781 65.4975 0.0800781C65.8822 0.0800781 66.1966 0.3833 66.1966 0.754847V10.2338C67.0419 9.91648 67.9399 9.7549 68.8453 9.75722ZM91.7744 9.53079C92.2169 9.53079 92.9944 9.537 93.5314 9.537V4.94745C93.5332 4.52176 93.7071 4.11408 94.015 3.81349C94.3229 3.5129 94.7399 3.34384 95.1747 3.34325C95.6098 3.3428 96.0273 3.51144 96.3354 3.81214C96.6435 4.11283 96.8171 4.52097 96.818 4.94688H96.8244V9.537C97.4629 9.537 98.019 9.51837 98.5686 9.51837C99.5169 9.58048 100.042 10.2095 99.9974 11.0667C99.953 11.9182 99.416 12.4055 98.6765 12.4614L96.8244 12.467V22.5293H96.8117C96.7797 22.9326 96.5933 23.3092 96.2898 23.5837C95.9862 23.8583 95.588 24.0104 95.1747 24.0098C94.7611 24.0095 94.3627 23.8572 94.0584 23.583C93.754 23.3088 93.566 22.9327 93.5314 22.5293V12.4676L91.5783 12.4614C91.0604 12.4614 90.3711 11.9306 90.3457 11.0791C90.3203 10.2281 90.9906 9.54886 91.7744 9.53079ZM8.10874 9.52514H8.31812C8.38734 9.53079 8.45655 9.53079 8.52635 9.537C8.59556 9.537 8.66536 9.54265 8.73515 9.54942C8.80437 9.55507 8.87358 9.55507 8.93703 9.56806L9.14584 9.58613C9.20928 9.59855 9.2785 9.60476 9.34772 9.61718C9.41117 9.62339 9.48038 9.63582 9.54383 9.64824L9.74629 9.68494C9.87896 9.70979 10.0059 9.74084 10.1385 9.77134L10.3277 9.82724C10.3969 9.83909 10.4604 9.86394 10.5238 9.88257L10.7136 9.93791C10.777 9.96276 10.8399 9.98139 10.8964 10.0057C10.9599 10.0243 11.0233 10.0491 11.0862 10.0734C11.2696 10.1412 11.4467 10.2219 11.6296 10.3021C11.8066 10.3885 11.9774 10.4811 12.1481 10.5732C12.6004 10.8253 13.0258 11.121 13.4182 11.4557L13.5642 11.5788C13.6144 11.6223 13.6588 11.6652 13.7095 11.7087C13.848 11.8386 13.9806 11.9797 14.1133 12.1152C14.2021 12.2146 14.2846 12.3072 14.3671 12.4055C14.4925 12.5515 14.6125 12.7018 14.727 12.8561C14.7651 12.9114 14.7962 12.9611 14.8343 13.0164C14.8724 13.0656 14.9099 13.1215 14.9416 13.1706V13.1768C15.0494 13.3372 15.1504 13.4975 15.245 13.6641V13.6703C15.2704 13.7256 15.3021 13.7816 15.3338 13.8369C15.3655 13.8922 15.3903 13.9481 15.4221 14.0097C15.4474 14.065 15.4792 14.1266 15.5045 14.1825C15.5293 14.2446 15.5611 14.2993 15.5865 14.3615C15.6372 14.4783 15.681 14.5958 15.7318 14.7189C15.7508 14.781 15.7762 14.8425 15.7953 14.9041C15.8143 14.9662 15.8391 15.0215 15.8587 15.0893L15.9152 15.2745C15.9343 15.3361 15.947 15.3976 15.966 15.4592C15.9844 15.5269 15.9971 15.589 16.0162 15.6511L16.0542 15.8482C16.0669 15.9098 16.0796 15.9713 16.0923 16.0391C16.105 16.1068 16.1177 16.1689 16.1298 16.2367C16.1361 16.2988 16.1488 16.3666 16.1552 16.4343C16.1615 16.4959 16.1742 16.5636 16.1806 16.632L16.1996 16.829C16.2054 16.8968 16.2054 16.9645 16.2123 17.0323C16.2123 17.1001 16.2181 17.1678 16.2181 17.2356V17.4394C16.2181 19.1114 16.1552 19.5371 16.1108 21.2458H16.105V21.3694C16.0923 21.9245 16.0796 22.2701 16.0733 22.8251C15.8454 23.5903 15.1123 23.8556 14.4553 23.8556C14.1845 23.8558 13.9181 23.7892 13.6805 23.6619C13.443 23.5345 13.2421 23.3507 13.0964 23.1272C13.0425 23.0111 13.0143 22.885 13.0139 22.7574C13.0012 22.3378 12.9949 21.9121 12.9822 21.4925L12.9764 17.5258V17.4394C12.9764 16.545 11.9901 14.139 10.5302 13.3247C10.4984 13.2999 10.461 13.2818 10.4287 13.2626C10.3975 13.2446 10.3594 13.2321 10.3277 13.2135C10.2896 13.1954 10.2521 13.1768 10.2204 13.1582C10.1824 13.1457 10.1512 13.1277 10.1126 13.1153C10.0751 13.0966 10.0433 13.078 10.0053 13.0656C9.96721 13.0531 9.92972 13.0351 9.89165 13.0226C9.85992 13.0102 9.82243 12.9916 9.78436 12.9792L9.67073 12.9425L9.55652 12.9052C9.51845 12.8928 9.48096 12.8809 9.44289 12.8747C9.40482 12.8623 9.36733 12.8499 9.32926 12.8436C9.28485 12.8312 9.24678 12.825 9.20928 12.8126C9.17122 12.8069 9.13315 12.7945 9.08873 12.7883C9.05124 12.7821 9.01317 12.7759 8.96876 12.7697C8.92962 12.7579 8.88946 12.7495 8.84878 12.7448C8.81071 12.7392 8.77322 12.7392 8.72881 12.7324C8.69074 12.7268 8.64632 12.72 8.60883 12.72C8.56441 12.7143 8.52635 12.7081 8.48193 12.7081C8.44444 12.7019 8.40003 12.7019 8.36196 12.7019C8.31812 12.6957 8.28005 12.6957 8.23564 12.6957H7.98299C7.94493 12.6957 7.90051 12.6957 7.86244 12.7014C7.8186 12.7014 7.78054 12.7014 7.73612 12.7081C7.69228 12.7081 7.65422 12.7138 7.61615 12.7206C7.57231 12.7206 7.53424 12.7262 7.48983 12.7324C7.45176 12.7386 7.40792 12.7386 7.36985 12.7448C7.33178 12.751 7.28737 12.7573 7.24987 12.7697L7.12932 12.7883C7.09183 12.8007 7.05376 12.8064 7.00935 12.8126C6.97128 12.825 6.93378 12.8312 6.89572 12.8436C6.85765 12.8493 6.82015 12.8623 6.78208 12.8747C6.73767 12.8871 6.6996 12.8928 6.66211 12.9052L6.5479 12.9425C6.51041 12.9549 6.47234 12.9673 6.44062 12.9792C6.40255 12.9916 6.36505 13.0102 6.32698 13.0226C6.28892 13.0351 6.25085 13.0531 6.2197 13.0656C6.18163 13.078 6.14356 13.0966 6.11184 13.1153H6.10607C6.07434 13.1277 6.03627 13.1457 6.00455 13.1582C5.96648 13.1768 5.92899 13.1954 5.89726 13.2135C5.8592 13.2321 5.82805 13.2446 5.7894 13.2632C5.75825 13.2818 5.72595 13.3005 5.68846 13.3253C4.95723 13.7336 4.34751 14.3216 3.91959 15.0313C3.49168 15.7409 3.26038 16.5477 3.24857 17.3717V17.4581L3.25492 22.8071C3.25492 23.4361 2.47738 23.9477 1.69408 23.9296C1.0619 23.9172 0.170735 23.5287 0.158045 22.7574C0.113631 20.5434 0 19.5987 0 17.4394V17.2361C0.00634487 17.1684 0.00634487 17.1006 0.0126897 17.0329C0.0126897 16.9651 0.0184578 16.8968 0.0253795 16.829L0.0444141 16.6314C0.0501821 16.5636 0.0571038 16.4959 0.0634487 16.4338C0.0755616 16.366 0.0819065 16.2982 0.0945962 16.2367C0.100941 16.1689 0.113631 16.1068 0.126321 16.0391C0.151355 15.9091 0.178854 15.7796 0.208804 15.6506C0.221493 15.5885 0.239951 15.5275 0.252641 15.4592L0.309745 15.2745L0.366849 15.0893L0.423376 14.9041C0.448755 14.842 0.46779 14.781 0.492592 14.7189C0.537006 14.5958 0.587765 14.4783 0.638524 14.3615C0.663904 14.2993 0.688706 14.244 0.714086 14.1825C0.74581 14.1266 0.77119 14.065 0.802914 14.0097C0.827717 13.9476 0.859441 13.8922 0.88482 13.8369L0.979417 13.6703V13.6647C1.07459 13.4975 1.16976 13.3372 1.27647 13.1768V13.1712C1.31454 13.1215 1.34627 13.0656 1.38433 13.0164C1.4224 12.9611 1.4599 12.9114 1.49797 12.8561C1.6116 12.7019 1.72523 12.554 1.85212 12.4055C1.93403 12.3067 2.02286 12.2146 2.10477 12.1158C2.23743 11.9803 2.37644 11.8448 2.51545 11.7087C2.55986 11.6652 2.61062 11.6223 2.65446 11.5788C2.70522 11.5359 2.75598 11.4986 2.79982 11.4557C3.19466 11.1238 3.62004 10.8283 4.07052 10.5732C4.24125 10.4811 4.41833 10.3885 4.59541 10.3021C4.77192 10.2219 4.95534 10.1418 5.13876 10.074C5.19529 10.0491 5.25874 10.0243 5.32161 10.0062C5.38506 9.98139 5.44851 9.96276 5.51196 9.93847L5.70115 9.88201C5.7646 9.86394 5.82805 9.83909 5.89092 9.82724C5.95437 9.8086 6.01724 9.78997 6.08703 9.77134C6.21335 9.74084 6.34602 9.70922 6.47868 9.68494L6.6748 9.64824C6.74402 9.63582 6.80746 9.62339 6.87668 9.61718C6.94013 9.60476 7.00935 9.59855 7.07856 9.58613L7.28102 9.56806C7.35082 9.55564 7.42061 9.55564 7.48348 9.54942C7.5527 9.54321 7.62249 9.537 7.69228 9.537C7.7615 9.53135 7.83072 9.53135 7.90051 9.52458H8.10931L8.10874 9.52514ZM24.4416 9.40092C28.5311 9.40092 31.8432 12.6342 31.8432 16.619C31.8432 18.9143 31.6915 21.2955 31.6915 23.6394H30.2183C29.8765 23.639 29.5454 23.5226 29.2815 23.31C29.0176 23.0973 28.8372 22.8017 28.7711 22.4734C27.5127 23.3676 25.9966 23.8473 24.4416 23.8432C20.3584 23.8432 17.0469 20.6105 17.0469 16.619C17.0469 12.6342 20.3584 9.40148 24.4416 9.40148V9.40092ZM24.4416 12.2886C26.8942 12.2886 28.8784 14.2316 28.8784 16.6195C28.8784 19.0126 26.8942 20.9499 24.4416 20.9499C21.989 20.9499 20.0048 19.0131 20.0048 16.619C20.0048 14.2316 21.989 12.288 24.4416 12.288V12.2886ZM36.0902 13.2446L36.1029 22.3011C36.1003 22.7069 35.9342 23.0952 35.6408 23.3818C35.3473 23.6683 34.9502 23.8299 34.5357 23.8314H32.9679V11.6031C32.9679 11.2762 33.1196 10.8747 33.3348 10.5415C33.3723 10.5732 33.404 10.598 33.4357 10.6223C34.2894 11.1711 35.5024 11.554 36.0902 13.244V13.2446ZM37.2409 16.4586C37.2409 12.585 40.4577 9.45117 44.4273 9.45117V9.47545C44.4775 9.46924 44.162 9.46303 44.5854 9.46303C45.0087 9.46303 46.0262 10.0921 46.0262 10.869C46.0262 11.6471 45.0214 12.27 44.5854 12.27C44.1487 12.27 44.4337 12.2637 44.3575 12.2575C42.2972 12.2886 40.591 14.5896 40.1988 15.9527C40.1349 16.1753 40.1091 16.4067 40.1226 16.6376L40.1417 22.6461C40.1417 23.4237 39.491 23.8805 38.6939 23.8805H37.2467C37.2467 21.61 37.2409 18.7291 37.2409 16.4586ZM52.7639 9.45117C56.8471 9.45117 60.1591 12.6833 60.1591 16.6687C60.1591 18.9634 60.0138 21.3384 60.0138 23.6891H58.5406C58.1991 23.6877 57.8686 23.5708 57.6049 23.3584C57.3412 23.1459 57.1605 22.8509 57.0934 22.523C55.8331 23.4135 54.3182 23.8927 52.7639 23.8923C48.6744 23.8923 45.3623 20.654 45.3623 16.6687C45.3623 12.6833 48.6744 9.45061 52.7639 9.45061V9.45117ZM52.7639 12.3377C55.2096 12.3377 57.2007 14.2745 57.2007 16.6687C57.2007 19.0622 55.2101 20.9996 52.7639 20.9996C50.3113 20.9996 48.3271 19.0622 48.3271 16.6687C48.3271 14.2745 50.3113 12.3377 52.7639 12.3377ZM84.8407 9.60476C88.8668 9.60476 92.128 12.7883 92.128 16.7178C92.128 16.9645 92.1159 17.2051 92.0905 17.4462H80.5238C80.7006 18.4408 81.2307 19.3422 82.0207 19.9912C82.8106 20.6402 83.8094 20.995 84.8407 20.9928C85.4934 20.9945 86.1381 20.8529 86.7277 20.5787C87.3172 20.3044 87.8364 19.9043 88.2473 19.4078C89.5682 18.877 90.8769 20.2221 90.1438 21.5976C89.4625 22.3046 88.6405 22.8675 87.7284 23.2516C86.8163 23.6357 85.8335 23.8328 84.8407 23.8308C80.8146 23.8308 77.5533 20.6478 77.5533 16.7178C77.5533 12.7877 80.8146 9.60476 84.8407 9.60476ZM88.7722 14.8177C88.4078 14.1022 87.8468 13.5004 87.1523 13.0798C86.4578 12.6592 85.6573 12.4364 84.8407 12.4365C84.0247 12.4357 83.2247 12.6583 82.5311 13.0791C81.8375 13.4998 81.2779 14.102 80.9155 14.8177H88.7722Z" fill="#D2691E"/>
</svg>
