<svg width="98" height="35" viewBox="0 0 98 35" fill="none" xmlns="http://www.w3.org/2000/svg">
<g clip-path="url(#clip0_2262_391)">
<path d="M44.0867 10.3857C46.0686 10.4079 47.7685 10.9601 49.1175 12.3734C50.078 13.3793 50.6186 14.6036 50.8549 15.9565C51.1673 17.7943 51.0233 19.5929 50.1693 21.2788C49.1226 23.3349 47.3983 24.4535 45.1152 24.7221C43.8504 24.873 42.6079 24.7673 41.4111 24.2986C39.8562 23.695 38.7131 22.6278 38.0346 21.1239C36.9676 18.7419 36.9524 16.3307 38.065 13.9718C39.0478 11.9007 40.7711 10.775 43.0501 10.4642C43.3938 10.4176 43.7399 10.3914 44.0867 10.3857ZM47.3567 17.7289C47.3567 16.7089 47.2269 15.877 46.8232 15.0985C46.2897 14.0634 45.4357 13.5111 44.2622 13.4729C43.0197 13.4357 42.0663 13.9266 41.4719 15.023C40.908 16.0511 40.8238 17.1696 40.9384 18.3114C41.0008 18.9622 41.1925 19.5943 41.5024 20.1713C42.539 22.1369 45.6335 22.159 46.7086 20.2719C47.1342 19.4922 47.3569 18.6196 47.3567 17.733V17.7289Z" fill="#D2691E"/>
<path d="M82.4481 23.3139C82.2528 23.5755 82.0304 23.8162 81.7848 24.0321C80.7867 24.8368 79.6548 24.9233 78.462 24.6356C77.2348 24.348 76.3503 23.5925 75.8249 22.481C74.8796 20.5154 74.7802 18.4965 75.687 16.5018C76.7236 14.2103 79.026 13.7798 80.7259 14.3693C81.2342 14.5497 81.686 14.859 82.0363 15.2665L82.2503 15.523C82.3264 15.4325 82.296 15.3339 82.296 15.2514C82.3031 13.7164 82.3112 12.1743 82.3031 10.6393C82.3031 10.4381 82.3568 10.3748 82.5698 10.3748C83.508 10.3898 84.4381 10.3828 85.3753 10.3748C85.566 10.3748 85.6339 10.4049 85.6339 10.6172C85.6265 15.1525 85.6265 19.6906 85.6339 24.2313C85.6339 24.4133 85.5964 24.4737 85.3976 24.4737C84.4908 24.4656 83.5719 24.4656 82.6692 24.4737C82.4937 24.4737 82.4329 24.4355 82.441 24.2544C82.4562 23.9627 82.4481 23.668 82.4481 23.3139ZM82.4177 19.4914C82.4258 18.9019 82.3568 18.3275 82.1053 17.7813C81.801 17.1084 81.2939 16.707 80.5271 16.6748C79.7197 16.6446 79.1328 16.985 78.7663 17.6958C78.5514 18.1318 78.4344 18.6089 78.4235 19.094C78.3931 19.8877 78.4772 20.6663 78.8961 21.3694C79.2694 21.9971 79.8414 22.2748 80.5656 22.2466C81.2898 22.2184 81.8 21.8533 82.0972 21.1954C82.3487 20.6512 82.4106 20.0768 82.4177 19.4914Z" fill="#D2691E"/>
<path d="M62.1425 24.4766H59.3025C58.7457 24.4766 58.7305 24.4615 58.6696 23.9022C58.6544 23.7966 58.6392 23.6899 58.6169 23.5541C58.0995 24.052 57.4611 24.4089 56.7638 24.5902C55.9065 24.8288 55.0024 24.8495 54.1348 24.6506C52.3355 24.219 51.6874 22.859 51.8558 21.2868C51.9927 19.963 52.8538 19.2679 54.0506 18.8897C54.9503 18.6101 55.8763 18.5195 56.8023 18.3867C57.1908 18.3264 57.5874 18.3033 57.9688 18.1856C58.3339 18.0719 58.555 17.8456 58.5935 17.4522C58.6202 17.2807 58.5928 17.1051 58.5151 16.9496C58.4375 16.794 58.3132 16.666 58.1594 16.5831C57.85 16.4008 57.5013 16.294 57.1421 16.2716C56.7828 16.2492 56.4234 16.3118 56.0934 16.4544C55.712 16.6133 55.4909 16.9302 55.3834 17.3164C55.3377 17.4744 55.282 17.5277 55.1166 17.5277C54.2322 17.521 53.3481 17.521 52.4643 17.5277C52.2615 17.5277 52.228 17.4673 52.2503 17.2863C52.4106 15.8116 53.2646 14.9043 54.6369 14.4888C56.256 13.9863 57.9901 13.9783 59.6139 14.4657C61.0014 14.8821 61.7327 15.887 61.7439 17.3235C61.7591 18.9189 61.7439 20.5213 61.752 22.1167C61.7611 22.9114 61.8067 23.6899 62.1425 24.4766ZM58.5601 19.793C58.0529 20.0274 57.5306 20.0877 57.0275 20.2014C56.5478 20.302 56.0447 20.3825 55.6329 20.6772C55.2211 20.9719 55.0923 21.3653 55.1755 21.8421C55.2515 22.2877 55.5416 22.5372 55.9605 22.6659C56.337 22.7643 56.7317 22.7718 57.1117 22.688C57.775 22.5754 58.1939 22.1851 58.3998 21.5624C58.5672 20.9911 58.5824 20.4096 58.5601 19.793Z" fill="#D2691E"/>
<path d="M66.8527 15.7605C67.8822 14.324 69.7799 13.803 71.5711 14.3391C72.6462 14.664 73.2791 15.4124 73.5529 16.4787C73.6757 16.9705 73.7346 17.4759 73.7284 17.9825C73.7355 20.0618 73.7284 22.1481 73.7355 24.2273C73.7355 24.4083 73.698 24.4687 73.4992 24.4687C72.5397 24.4613 71.5795 24.4613 70.6187 24.4687C70.4351 24.4687 70.3976 24.4164 70.3976 24.2424C70.4047 22.4126 70.4047 20.5838 70.3976 18.746C70.4014 18.4375 70.3629 18.1299 70.2829 17.8317C70.1075 17.2422 69.719 16.9394 69.1094 16.864C67.588 16.6899 67.0211 17.7492 66.9795 18.7309C66.9419 19.9109 66.9643 21.0898 66.9643 22.2698C66.9643 22.9347 66.9572 23.6076 66.9643 24.2725C66.9643 24.4164 66.9257 24.4617 66.7817 24.4617C65.7908 24.4536 64.7917 24.4536 63.8008 24.4617C63.6101 24.4617 63.6253 24.3611 63.6253 24.2424V14.663C63.6253 14.4739 63.6638 14.4065 63.8697 14.4065C64.7765 14.4216 65.6954 14.4216 66.5981 14.4065C66.8121 14.4065 66.8649 14.4669 66.8578 14.6711C66.8375 15.0503 66.8527 15.4054 66.8527 15.7605Z" fill="#D2691E"/>
<path d="M97.611 19.442C97.6029 22.1711 95.8959 24.2423 93.2497 24.6879C90.1774 25.21 87.5556 23.4406 87.0373 20.5083C86.6103 18.0891 87.6549 15.7071 89.8579 14.6639C92.6553 13.3412 96.5805 14.4748 97.465 18.1494C97.5561 18.5745 97.6051 19.0075 97.611 19.442ZM94.2801 19.5024C94.2568 18.7842 94.1726 18.248 93.9292 17.7561C93.5783 17.046 93.0225 16.6597 92.205 16.6828C91.4047 16.7049 90.8641 17.1063 90.574 17.8165C90.1338 18.8542 90.1228 20.022 90.5436 21.0676C90.8479 21.8613 91.4656 22.2616 92.2678 22.2616C93.0701 22.2616 93.6696 21.8311 93.9921 21.0596C94.1854 20.5629 94.2831 20.0347 94.2801 19.5024Z" fill="#D2691E"/>
<path d="M15.9296 0.656494H16.2339C16.2491 0.762115 16.3353 0.757086 16.4093 0.757086C17.1214 0.760929 17.8326 0.806271 18.5393 0.892882C19.6507 1.01927 20.7463 1.25722 21.8093 1.60306C22.537 1.85442 23.2483 2.15005 23.9393 2.48827C24.4833 2.76834 25.0033 3.09198 25.4942 3.45596C26.051 3.84123 26.5459 4.31703 27.0338 4.78578C27.5574 5.29582 28.0327 5.85241 28.4538 6.44856C29.0786 7.30359 29.5441 8.23306 29.9934 9.18566C30.1537 9.53371 30.2602 9.89584 30.3992 10.2519C30.6477 10.9022 30.848 11.5695 30.9986 12.2487C31.1436 12.8985 31.243 13.5715 31.3272 14.2364C31.4627 15.257 31.5416 16.2843 31.5635 17.3135C31.5706 17.7058 31.5402 18.0991 31.5331 18.4844C31.511 19.3397 31.4396 20.1931 31.3191 21.0404C31.2278 21.7053 31.1365 22.3702 30.9834 23.0281C30.7893 23.8609 30.5371 24.6793 30.2288 25.4775C30.0854 25.8827 29.9069 26.2748 29.6953 26.6494C29.6882 26.6494 29.68 26.6413 29.6729 26.6413C29.6658 26.6413 29.6882 26.6494 29.6953 26.6494C29.6948 26.7067 29.682 26.7633 29.6577 26.8154C29.4214 27.2922 29.109 27.7297 28.8646 28.2066C28.5978 28.7276 28.1708 29.1592 27.8128 29.6148C27.2669 30.2906 26.6367 30.895 25.9374 31.4134C25.3685 31.8625 24.7617 32.2623 24.1239 32.6084C23.7354 32.8096 23.3459 33.0309 22.9352 33.1979C22.6309 33.3267 22.2941 33.4092 21.9899 33.5379C21.2799 33.8326 20.5334 33.9684 19.794 34.1576C19.5658 34.2137 19.334 34.254 19.1002 34.2783C18.5596 34.3396 18.018 34.3919 17.4774 34.4452C16.8211 34.4976 16.1659 34.4905 15.5107 34.5056C15.042 34.5238 14.5726 34.5009 14.108 34.4372C13.6282 34.3618 13.1322 34.3618 12.6677 34.2561C11.974 34.0972 11.2721 33.9765 10.5945 33.7723C9.84703 33.553 9.13806 33.2351 8.42908 32.9253C7.72011 32.6155 7.08011 32.1699 6.4401 31.7182C6.02121 31.4235 5.65506 31.0764 5.26659 30.7435C5.15198 30.6429 5.06374 30.5312 4.95319 30.4256C4.62405 30.1318 4.3207 29.8108 4.04643 29.466C3.70361 29.0042 3.36788 28.5435 3.0636 28.0577C2.25316 26.762 1.64419 25.3527 1.25719 23.8771C1.06651 23.1508 0.914368 22.4255 0.769328 21.6922C0.566474 20.5807 0.502575 19.4621 0.441719 18.3435C0.386262 17.5171 0.40391 16.6874 0.494461 15.8639C0.540103 15.5089 0.517789 15.1528 0.578645 14.7977C0.680072 14.2082 0.730786 13.6107 0.852498 13.0293C0.975224 12.4257 1.11925 11.8222 1.28762 11.2186C1.50035 10.4523 1.76778 9.70205 2.08788 8.97342C2.24002 8.61833 2.43881 8.27833 2.61327 7.93833C2.87947 7.42878 3.17758 6.93626 3.50582 6.46365C3.84888 5.96883 4.23366 5.50377 4.656 5.07348C5.07451 4.62822 5.52028 4.20897 5.99078 3.81809C6.45643 3.44781 6.95053 3.11417 7.46857 2.82022C7.94122 2.54862 8.4372 2.31726 8.92506 2.07182C9.29121 1.8827 9.68678 1.77708 10.0681 1.63324C10.6689 1.41975 11.2824 1.24304 11.905 1.10413C12.2904 1.0218 12.6796 0.958684 13.0714 0.915013C13.7875 0.814421 14.4964 0.71886 15.2206 0.733949H15.7278C15.815 0.755073 15.9144 0.781228 15.9296 0.656494ZM16.1051 32.7312C16.9471 32.7186 17.7863 32.6304 18.6123 32.4676C19.2603 32.3324 19.8935 32.135 20.5029 31.8782C21.2514 31.5629 21.9579 31.1575 22.6065 30.671C23.2334 30.198 23.8062 29.6583 24.3146 29.0616C24.7514 28.5578 25.1418 28.0161 25.481 27.4431C25.6402 27.1564 25.8157 26.8687 25.9607 26.5669C26.2891 25.8683 26.5766 25.1516 26.8218 24.4203C26.9283 24.0954 27.0358 23.7705 27.1119 23.4455C27.3471 22.4942 27.5252 21.5298 27.6454 20.5576C27.7519 19.6955 27.7752 18.8344 27.828 17.9723C27.8736 17.1676 27.7976 16.377 27.7448 15.5763C27.6952 14.8384 27.6034 14.1039 27.4699 13.3763C27.2032 11.9097 26.8147 10.4732 26.1889 9.11223C25.84 8.31895 25.4083 7.56408 24.9008 6.85998C24.3369 6.09649 23.7273 5.37022 22.9656 4.77371C22.1038 4.07716 21.1328 3.52531 20.0911 3.1401C18.7627 2.66441 17.3569 2.43659 15.9448 2.46815C15.6324 2.47519 15.3271 2.49028 15.0147 2.51342C14.5132 2.54332 14.0143 2.60752 13.5217 2.70555C12.5154 2.90043 11.5444 3.24428 10.6412 3.72555C10.2389 3.93434 9.85396 4.1745 9.49001 4.44377C8.91523 4.88897 8.37978 5.38198 7.88949 5.91744C7.52757 6.32354 7.19635 6.75559 6.89855 7.21004C6.40019 7.96041 5.97886 8.7584 5.64086 9.59205C5.44571 10.0433 5.2764 10.5051 5.13373 10.9752C4.82347 12.0437 4.58894 13.1324 4.43185 14.2334C4.29188 15.2664 4.26044 16.2895 4.20668 17.3175C4.16814 18.0589 4.25233 18.7992 4.29087 19.5406C4.3286 20.3294 4.42009 21.1148 4.56472 21.8914C4.8619 23.4556 5.28891 24.9826 6.006 26.418C6.41655 27.2876 6.92707 28.1071 7.5274 28.8604C8.69103 30.327 10.2423 31.4445 12.0084 32.0884C13.331 32.5581 14.6952 32.701 16.1051 32.7312Z" fill="#F6D600"/>
<path d="M16.1045 32.7311C14.7018 32.7009 13.3305 32.5581 12.0109 32.0742C11.1831 31.7755 10.3987 31.3696 9.6781 30.8671C8.87064 30.296 8.14758 29.6158 7.52988 28.8462C6.93202 28.0913 6.42168 27.272 6.00847 26.4039C5.29138 24.9674 4.87249 23.4404 4.5672 21.8772C4.42097 21.1005 4.3288 20.3147 4.29132 19.5254C4.25277 18.7841 4.16859 18.0437 4.20713 17.3023C4.25277 16.2743 4.2832 15.2462 4.43534 14.2182C4.59243 13.1172 4.82696 12.0285 5.13722 10.96C5.27989 10.4899 5.4492 10.0281 5.64435 9.57689C5.98562 8.74474 6.40679 7.94706 6.90204 7.19488C7.20335 6.74288 7.53439 6.31108 7.89298 5.90228C8.38328 5.36682 8.91872 4.87381 9.4935 4.42861C9.85914 4.1618 10.2439 3.92176 10.6447 3.71038C11.5451 3.22654 12.5153 2.88319 13.5212 2.6924C14.0142 2.59566 14.5134 2.53281 15.0152 2.50429C15.3276 2.4892 15.6329 2.46606 15.9453 2.45902C17.357 2.43145 18.7621 2.65915 20.0916 3.13097C21.1339 3.51484 22.1051 4.0668 22.966 4.76458C23.7277 5.36109 24.3373 6.08736 24.9013 6.85086C25.4053 7.55709 25.8369 8.3116 26.1894 9.10311C26.8223 10.4641 27.2036 11.9006 27.4704 13.3672C27.6036 14.0951 27.695 14.8299 27.7442 15.5681C27.797 16.3729 27.8731 17.1625 27.8274 17.9642C27.7747 18.8263 27.7513 19.6874 27.6448 20.5494C27.5249 21.5203 27.3471 22.4833 27.1124 23.4334C27.0282 23.7583 26.9288 24.0913 26.8223 24.4081C26.5783 25.1403 26.2907 25.8574 25.9612 26.5558C25.8161 26.8575 25.6488 27.1452 25.4814 27.4319C25.1459 28.0066 24.755 28.5477 24.314 29.0474C23.2871 30.2733 21.9805 31.2388 20.5024 31.864C19.893 32.1209 19.2598 32.3183 18.6118 32.4535C17.7873 32.6278 16.9474 32.7208 16.1045 32.7311ZM18.3683 28.2558C18.483 28.2558 18.6047 28.2638 18.7193 28.2558C18.8339 28.2477 18.9475 28.2185 19.0692 28.2105C20.1627 28.1405 21.2248 27.8196 22.1719 27.273C23.0842 26.7687 23.9016 26.1115 24.5878 25.3306C25.1142 24.733 25.6021 24.0983 25.9449 23.3881C26.6119 22.036 26.8637 20.5193 26.6691 19.0265C26.5211 17.9356 26.2022 16.8743 25.7238 15.881C24.9925 14.3168 23.956 12.9477 22.7743 11.7004C21.7079 10.5614 20.4989 9.56245 19.1767 8.7279C18.293 8.16277 17.3381 7.71532 16.3368 7.39707C15.2545 7.05707 14.1419 6.86796 12.9897 6.97458C12.5633 7.00766 12.1403 7.07494 11.7249 7.17577C10.6664 7.45478 9.67589 7.94341 8.81293 8.61222C7.89329 9.30181 7.10591 10.1495 6.48822 11.1149C5.50536 12.6257 5.10224 14.4362 5.35224 16.217C5.50029 17.3264 5.82698 18.405 6.31985 19.4117C6.92632 20.6418 7.69251 21.7879 8.59891 22.8208C9.41108 23.7677 10.3121 24.6361 11.2898 25.414C12.286 26.2116 13.3825 26.8774 14.5517 27.3947C15.7538 27.9298 17.0511 28.2225 18.3683 28.2558Z" fill="#F4B400"/>
<path d="M29.695 26.6537C29.6876 26.6537 29.6792 26.6464 29.6719 26.6464C29.676 26.646 29.6802 26.6464 29.6842 26.6476C29.6882 26.6489 29.6919 26.651 29.695 26.6537Z" fill="#636363"/>
<path d="M18.3688 28.2559C17.0474 28.2232 15.7461 27.9276 14.542 27.3868C13.371 26.8729 12.2741 26.2069 11.2801 25.4062C10.3025 24.6273 9.40153 23.7583 8.58923 22.8109C7.69768 21.7597 6.91264 20.6482 6.31016 19.4009C5.81783 18.3957 5.49114 17.3188 5.34255 16.2111C5.09815 14.4283 5.50661 12.6176 6.49375 11.1081C7.11118 10.1427 7.89861 9.29533 8.81845 8.60636C9.68052 7.93674 10.6709 7.44802 11.7294 7.16991C12.145 7.06839 12.5684 7.0011 12.9952 6.96873C14.1464 6.86311 15.2509 7.05222 16.3423 7.39222C17.342 7.71476 18.2962 8.16195 19.1822 8.72305C20.5066 9.55389 21.716 10.5525 22.7799 11.6935C23.9686 12.9529 25.0001 14.3089 25.7324 15.8701C26.2103 16.8631 26.5289 17.9241 26.6767 19.0146C26.8731 20.5075 26.6212 22.0246 25.9525 23.3762C25.6026 24.0945 25.1218 24.7222 24.5964 25.3197C23.9112 26.1016 23.0936 26.759 22.1804 27.2621C21.2337 27.8095 20.1714 28.1305 19.0778 28.1996C18.9632 28.2067 18.8486 28.2368 18.7268 28.2449C18.6078 28.256 18.4883 28.2597 18.3688 28.2559ZM17.7815 10.1364C17.0326 10.1343 16.2894 10.2648 15.5867 10.5216C14.0389 11.0739 12.7356 12.0114 11.5773 13.1521C11.0154 13.6934 10.5061 14.2858 10.0559 14.9215C9.04159 16.4032 8.32551 17.9674 8.48475 19.8123C8.5247 20.3687 8.66413 20.9137 8.89655 21.4217C9.3584 22.4191 10.0632 23.2867 10.9474 23.9466C11.8206 24.6247 12.8828 25.0204 13.9902 25.0803C14.7131 25.1157 15.4362 25.0133 16.1202 24.7785C17.7663 24.2484 19.1538 23.3038 20.3801 22.1098C21.1055 21.4125 21.7431 20.6305 22.2788 19.7811C23.1014 18.4432 23.6582 17.0299 23.5284 15.4114C23.4681 14.6611 23.2416 13.9333 22.8651 13.2799C22.4698 12.5997 21.9545 11.9956 21.3437 11.4964C20.3172 10.6393 19.1386 10.1434 17.7815 10.1364Z" fill="#EA6E00"/>
<path d="M17.7812 10.1364C19.1464 10.1515 20.3118 10.6394 21.3412 11.5045C21.9518 12.0043 22.4671 12.6087 22.8626 13.2889C23.2387 13.9426 23.4652 14.6703 23.526 15.4205C23.6548 17.038 23.099 18.4443 22.2754 19.7902C21.7444 20.6424 21.1068 21.4245 20.3777 22.1179C19.1504 23.3129 17.7629 24.2575 16.1178 24.7866C15.4338 25.0214 14.7107 25.1238 13.9878 25.0884C12.8809 25.0253 11.8196 24.6295 10.945 23.9537C10.0648 23.29 9.36114 22.4233 8.89515 21.4288C8.66392 20.9204 8.52454 20.3756 8.48336 19.8194C8.3231 17.9665 9.04019 16.3992 10.0534 14.9276C10.5018 14.2908 11.0113 13.6985 11.5748 13.1592C12.7331 12.0175 14.0365 11.08 15.5832 10.5287C16.285 10.2637 17.0303 10.1307 17.7812 10.1364ZM21.2043 17.7331C21.2266 16.0401 20.5106 14.8914 19.0845 14.2184C17.2588 13.3563 15.3581 13.3493 13.4594 13.984C12.4451 14.324 11.6225 14.9366 11.1499 15.9194C10.8419 16.5788 10.7259 17.3105 10.8152 18.0318C10.9217 19.0448 11.3405 19.8918 12.1408 20.5265C13.1551 21.3313 14.3722 21.5998 15.6248 21.6682C16.6186 21.7273 17.6141 21.5856 18.551 21.2518C20.1525 20.6814 21.25 19.4039 21.2043 17.7331Z" fill="#D50016"/>
<path d="M21.204 17.7329C21.2497 19.4037 20.1522 20.6742 18.5588 21.2536C17.6215 21.5874 16.6257 21.7291 15.6316 21.6701C14.3668 21.6017 13.1619 21.3371 12.1486 20.5283C11.3484 19.8936 10.9214 19.0547 10.822 18.0337C10.7331 17.3123 10.8494 16.5806 11.1577 15.9212C11.6303 14.9385 12.4529 14.3259 13.4672 13.9859C15.3649 13.3511 17.2626 13.3582 19.0923 14.2202C20.5103 14.8912 21.2294 16.0399 21.204 17.7329Z" fill="#D2691E"/>
</g>
<defs>
<clipPath id="clip0_2262_391">
<rect width="98" height="34" fill="white" transform="translate(0 0.580078)"/>
</clipPath>
</defs>
</svg>
